<mxfile host="app.diagrams.net" modified="2020-10-19T10:39:22.866Z" agent="5.0 (Macintosh; Intel Mac OS X 10_13_6) AppleWebKit/605.1.15 (KHTML, like Gecko) Version/13.1.2 Safari/605.1.15" etag="N4mSFzwrEMzNI8wRZyjS" version="13.8.0" type="github">
  <diagram id="R2lEEEUBdFMjLlhIrx00" name="Page-1">
    <mxGraphModel dx="1426" dy="941" grid="1" gridSize="10" guides="1" tooltips="1" connect="1" arrows="1" fold="1" page="1" pageScale="1" pageWidth="850" pageHeight="1100" math="0" shadow="0" extFonts="Permanent Marker^https://fonts.googleapis.com/css?family=Permanent+Marker">
      <root>
        <mxCell id="0" />
        <mxCell id="1" parent="0" />
        <mxCell id="EqW7mRNqW-pM5LDjS-Ml-1" value="&lt;font face=&quot;arial, sans-serif&quot;&gt;&lt;span style=&quot;font-size: 14.666666984558105px&quot;&gt;University&lt;/span&gt;&lt;/font&gt;" style="rounded=0;whiteSpace=wrap;html=1;" parent="1" vertex="1">
          <mxGeometry x="80" y="590" width="120" height="60" as="geometry" />
        </mxCell>
        <mxCell id="EqW7mRNqW-pM5LDjS-Ml-2" value="&lt;span lang=&quot;EN&quot; style=&quot;font-size: 11pt ; line-height: 16.866666793823242px ; font-family: &amp;#34;arial&amp;#34; , sans-serif&quot;&gt;student&lt;/span&gt;&lt;span style=&quot;font-size: medium&quot;&gt;&lt;/span&gt;" style="rounded=0;whiteSpace=wrap;html=1;" parent="1" vertex="1">
          <mxGeometry x="365" y="590" width="120" height="60" as="geometry" />
        </mxCell>
        <mxCell id="EqW7mRNqW-pM5LDjS-Ml-7" value="" style="endArrow=none;html=1;" parent="1" edge="1">
          <mxGeometry width="50" height="50" relative="1" as="geometry">
            <mxPoint x="140" y="590" as="sourcePoint" />
            <mxPoint x="140" y="530" as="targetPoint" />
          </mxGeometry>
        </mxCell>
        <mxCell id="EqW7mRNqW-pM5LDjS-Ml-8" value="" style="endArrow=none;html=1;" parent="1" edge="1">
          <mxGeometry width="50" height="50" relative="1" as="geometry">
            <mxPoint x="180" y="590" as="sourcePoint" />
            <mxPoint x="210" y="540" as="targetPoint" />
          </mxGeometry>
        </mxCell>
        <mxCell id="EqW7mRNqW-pM5LDjS-Ml-10" value="" style="endArrow=none;html=1;" parent="1" edge="1">
          <mxGeometry width="50" height="50" relative="1" as="geometry">
            <mxPoint x="100" y="590" as="sourcePoint" />
            <mxPoint x="80" y="540" as="targetPoint" />
          </mxGeometry>
        </mxCell>
        <mxCell id="EqW7mRNqW-pM5LDjS-Ml-12" value="&lt;span lang=&quot;EN&quot; style=&quot;font-size: 11pt ; line-height: 16.866666793823242px ; font-family: &amp;#34;arial&amp;#34; , sans-serif&quot;&gt;chancellor&lt;/span&gt;&lt;span style=&quot;font-size: medium&quot;&gt;&lt;/span&gt;" style="ellipse;whiteSpace=wrap;html=1;" parent="1" vertex="1">
          <mxGeometry x="190" y="500" width="80" height="50" as="geometry" />
        </mxCell>
        <mxCell id="EqW7mRNqW-pM5LDjS-Ml-13" value="&lt;span lang=&quot;EN&quot; style=&quot;font-size: 11pt ; line-height: 16.866666793823242px ; font-family: &amp;#34;arial&amp;#34; , sans-serif&quot;&gt;location&lt;/span&gt;&lt;span style=&quot;font-size: medium&quot;&gt;&lt;/span&gt;" style="ellipse;whiteSpace=wrap;html=1;" parent="1" vertex="1">
          <mxGeometry x="110" y="480" width="80" height="50" as="geometry" />
        </mxCell>
        <mxCell id="EqW7mRNqW-pM5LDjS-Ml-15" value="&lt;span lang=&quot;EN&quot; style=&quot;font-size: 11pt ; line-height: 16.866666793823242px ; font-family: &amp;#34;arial&amp;#34; , sans-serif&quot;&gt;&lt;u&gt;school name&lt;/u&gt;&lt;/span&gt;&lt;span style=&quot;font-size: medium&quot;&gt;&lt;/span&gt;" style="ellipse;whiteSpace=wrap;html=1;" parent="1" vertex="1">
          <mxGeometry x="30" y="500" width="80" height="50" as="geometry" />
        </mxCell>
        <mxCell id="EqW7mRNqW-pM5LDjS-Ml-23" value="have" style="rhombus;whiteSpace=wrap;html=1;" parent="1" vertex="1">
          <mxGeometry x="240" y="595" width="80" height="50" as="geometry" />
        </mxCell>
        <mxCell id="EqW7mRNqW-pM5LDjS-Ml-24" value="" style="endArrow=none;html=1;exitX=1;exitY=0.5;exitDx=0;exitDy=0;" parent="1" source="EqW7mRNqW-pM5LDjS-Ml-1" edge="1">
          <mxGeometry width="50" height="50" relative="1" as="geometry">
            <mxPoint x="190" y="670" as="sourcePoint" />
            <mxPoint x="240" y="620" as="targetPoint" />
          </mxGeometry>
        </mxCell>
        <mxCell id="EqW7mRNqW-pM5LDjS-Ml-26" value="" style="endArrow=classic;html=1;entryX=0;entryY=0.5;entryDx=0;entryDy=0;" parent="1" target="EqW7mRNqW-pM5LDjS-Ml-2" edge="1">
          <mxGeometry width="50" height="50" relative="1" as="geometry">
            <mxPoint x="320" y="620" as="sourcePoint" />
            <mxPoint x="370" y="570" as="targetPoint" />
          </mxGeometry>
        </mxCell>
        <mxCell id="EqW7mRNqW-pM5LDjS-Ml-31" value="" style="endArrow=none;html=1;" parent="1" edge="1">
          <mxGeometry width="50" height="50" relative="1" as="geometry">
            <mxPoint x="420" y="590" as="sourcePoint" />
            <mxPoint x="420" y="530" as="targetPoint" />
          </mxGeometry>
        </mxCell>
        <mxCell id="EqW7mRNqW-pM5LDjS-Ml-32" value="" style="endArrow=none;html=1;" parent="1" edge="1">
          <mxGeometry width="50" height="50" relative="1" as="geometry">
            <mxPoint x="460" y="590" as="sourcePoint" />
            <mxPoint x="490" y="540" as="targetPoint" />
          </mxGeometry>
        </mxCell>
        <mxCell id="EqW7mRNqW-pM5LDjS-Ml-33" value="" style="endArrow=none;html=1;" parent="1" edge="1">
          <mxGeometry width="50" height="50" relative="1" as="geometry">
            <mxPoint x="380" y="590" as="sourcePoint" />
            <mxPoint x="360" y="540" as="targetPoint" />
          </mxGeometry>
        </mxCell>
        <mxCell id="EqW7mRNqW-pM5LDjS-Ml-34" value="&lt;span lang=&quot;EN&quot; style=&quot;font-size: 11pt ; line-height: 16.866666793823242px ; font-family: &amp;#34;arial&amp;#34; , sans-serif&quot;&gt;major&lt;/span&gt;&lt;span style=&quot;font-size: medium&quot;&gt;&lt;/span&gt;" style="ellipse;whiteSpace=wrap;html=1;" parent="1" vertex="1">
          <mxGeometry x="470" y="500" width="80" height="50" as="geometry" />
        </mxCell>
        <mxCell id="EqW7mRNqW-pM5LDjS-Ml-35" value="&lt;span lang=&quot;EN&quot; style=&quot;font-size: 11pt ; line-height: 16.866666793823242px ; font-family: &amp;#34;arial&amp;#34; , sans-serif&quot;&gt;student name&lt;/span&gt;&lt;span style=&quot;font-size: medium&quot;&gt;&lt;/span&gt;" style="ellipse;whiteSpace=wrap;html=1;" parent="1" vertex="1">
          <mxGeometry x="390" y="480" width="80" height="50" as="geometry" />
        </mxCell>
        <mxCell id="EqW7mRNqW-pM5LDjS-Ml-36" value="&lt;span lang=&quot;EN&quot; style=&quot;font-size: 11pt ; line-height: 16.866666793823242px ; font-family: &amp;#34;arial&amp;#34; , sans-serif&quot;&gt;&lt;u&gt;student id&lt;/u&gt;&lt;/span&gt;&lt;span style=&quot;font-size: medium&quot;&gt;&lt;/span&gt;" style="ellipse;whiteSpace=wrap;html=1;" parent="1" vertex="1">
          <mxGeometry x="310" y="500" width="80" height="50" as="geometry" />
        </mxCell>
        <mxCell id="EqW7mRNqW-pM5LDjS-Ml-37" value="&lt;span lang=&quot;EN&quot; style=&quot;font-size: 11pt ; line-height: 16.866666793823242px ; font-family: &amp;#34;arial&amp;#34; , sans-serif&quot;&gt;school year&lt;/span&gt;&lt;span style=&quot;font-size: medium&quot;&gt;&lt;/span&gt;" style="ellipse;whiteSpace=wrap;html=1;" parent="1" vertex="1">
          <mxGeometry x="330" y="440" width="80" height="50" as="geometry" />
        </mxCell>
        <mxCell id="EqW7mRNqW-pM5LDjS-Ml-38" value="" style="endArrow=none;html=1;" parent="1" edge="1">
          <mxGeometry width="50" height="50" relative="1" as="geometry">
            <mxPoint x="400" y="590" as="sourcePoint" />
            <mxPoint x="380" y="490" as="targetPoint" />
          </mxGeometry>
        </mxCell>
        <mxCell id="EqW7mRNqW-pM5LDjS-Ml-48" value="" style="endArrow=none;html=1;" parent="1" edge="1">
          <mxGeometry width="50" height="50" relative="1" as="geometry">
            <mxPoint x="440" y="590" as="sourcePoint" />
            <mxPoint x="480" y="480" as="targetPoint" />
          </mxGeometry>
        </mxCell>
        <mxCell id="EqW7mRNqW-pM5LDjS-Ml-49" value="&lt;span lang=&quot;EN&quot; style=&quot;font-size: 11pt ; line-height: 16.866666793823242px ; font-family: &amp;#34;arial&amp;#34; , sans-serif&quot;&gt;birth date&lt;/span&gt;&lt;span style=&quot;font-size: medium&quot;&gt;&lt;/span&gt;" style="ellipse;whiteSpace=wrap;html=1;" parent="1" vertex="1">
          <mxGeometry x="450" y="440" width="80" height="50" as="geometry" />
        </mxCell>
        <mxCell id="z4kr6fctD4fUP22gW_Uv-2" value="" style="endArrow=none;html=1;" parent="1" edge="1">
          <mxGeometry width="50" height="50" relative="1" as="geometry">
            <mxPoint x="380" y="700" as="sourcePoint" />
            <mxPoint x="395" y="650" as="targetPoint" />
          </mxGeometry>
        </mxCell>
        <mxCell id="z4kr6fctD4fUP22gW_Uv-3" value="" style="endArrow=none;html=1;" parent="1" edge="1">
          <mxGeometry width="50" height="50" relative="1" as="geometry">
            <mxPoint x="480" y="700" as="sourcePoint" />
            <mxPoint x="460" y="650" as="targetPoint" />
          </mxGeometry>
        </mxCell>
        <mxCell id="z4kr6fctD4fUP22gW_Uv-5" value="be&lt;span style=&quot;color: rgba(0 , 0 , 0 , 0) ; font-family: monospace ; font-size: 0px&quot;&gt;%3CmxGraphModel%3E%3Croot%3E%3CmxCell%20id%3D%220%22%2F%3E%3CmxCell%20id%3D%221%22%20parent%3D%220%22%2F%3E%3CmxCell%20id%3D%222%22%20value%3D%22have%22%20style%3D%22rhombus%3BwhiteSpace%3Dwrap%3Bhtml%3D1%3B%22%20vertex%3D%221%22%20parent%3D%221%22%3E%3CmxGeometry%20x%3D%22240%22%20y%3D%22595%22%20width%3D%2280%22%20height%3D%2250%22%20as%3D%22geometry%22%2F%3E%3C%2FmxCell%3E%3C%2Froot%3E%3C%2FmxGraphModel%3E&lt;/span&gt;" style="rhombus;whiteSpace=wrap;html=1;" parent="1" vertex="1">
          <mxGeometry x="310" y="680" width="80" height="50" as="geometry" />
        </mxCell>
        <mxCell id="z4kr6fctD4fUP22gW_Uv-6" value="be&lt;span style=&quot;color: rgba(0 , 0 , 0 , 0) ; font-family: monospace ; font-size: 0px&quot;&gt;%3CmxGraphModel%3E%3Croot%3E%3CmxCell%20id%3D%220%22%2F%3E%3CmxCell%20id%3D%221%22%20parent%3D%220%22%2F%3E%3CmxCell%20id%3D%222%22%20value%3D%22have%22%20style%3D%22rhombus%3BwhiteSpace%3Dwrap%3Bhtml%3D1%3B%22%20vertex%3D%221%22%20parent%3D%221%22%3E%3CmxGeometry%20x%3D%22240%22%20y%3D%22595%22%20width%3D%2280%22%20height%3D%2250%22%20as%3D%22geometry%22%2F%3E%3C%2FmxCell%3E%3C%2Froot%3E%3C%2FmxGraphModel%3E&lt;/span&gt;" style="rhombus;whiteSpace=wrap;html=1;" parent="1" vertex="1">
          <mxGeometry x="460" y="680" width="80" height="50" as="geometry" />
        </mxCell>
        <mxCell id="z4kr6fctD4fUP22gW_Uv-7" value="" style="endArrow=classic;html=1;entryX=0.5;entryY=0;entryDx=0;entryDy=0;" parent="1" target="z4kr6fctD4fUP22gW_Uv-15" edge="1">
          <mxGeometry width="50" height="50" relative="1" as="geometry">
            <mxPoint x="350" y="730" as="sourcePoint" />
            <mxPoint x="280" y="780" as="targetPoint" />
          </mxGeometry>
        </mxCell>
        <mxCell id="z4kr6fctD4fUP22gW_Uv-8" value="" style="endArrow=classic;html=1;" parent="1" edge="1">
          <mxGeometry width="50" height="50" relative="1" as="geometry">
            <mxPoint x="500" y="730" as="sourcePoint" />
            <mxPoint x="500" y="780" as="targetPoint" />
          </mxGeometry>
        </mxCell>
        <mxCell id="z4kr6fctD4fUP22gW_Uv-15" value="&lt;span lang=&quot;EN&quot; style=&quot;font-size: 11pt ; line-height: 16.866666793823242px ; font-family: &amp;#34;arial&amp;#34; , sans-serif&quot;&gt;basketball player&amp;nbsp;&lt;/span&gt;&lt;span style=&quot;font-size: medium&quot;&gt;&lt;/span&gt;" style="rounded=0;whiteSpace=wrap;html=1;" parent="1" vertex="1">
          <mxGeometry x="290" y="780" width="120" height="60" as="geometry" />
        </mxCell>
        <mxCell id="z4kr6fctD4fUP22gW_Uv-17" value="" style="endArrow=none;html=1;entryX=0.5;entryY=1;entryDx=0;entryDy=0;" parent="1" edge="1">
          <mxGeometry width="50" height="50" relative="1" as="geometry">
            <mxPoint x="359.5" y="900" as="sourcePoint" />
            <mxPoint x="360" y="840" as="targetPoint" />
          </mxGeometry>
        </mxCell>
        <mxCell id="z4kr6fctD4fUP22gW_Uv-18" value="" style="endArrow=none;html=1;" parent="1" edge="1">
          <mxGeometry width="50" height="50" relative="1" as="geometry">
            <mxPoint x="270" y="890" as="sourcePoint" />
            <mxPoint x="320" y="840" as="targetPoint" />
          </mxGeometry>
        </mxCell>
        <mxCell id="z4kr6fctD4fUP22gW_Uv-19" value="&lt;span lang=&quot;EN&quot; style=&quot;font-size: 11pt ; line-height: 16.866666793823242px ; font-family: &amp;#34;arial&amp;#34; , sans-serif&quot;&gt;score&lt;/span&gt;&lt;span style=&quot;font-size: medium&quot;&gt;&lt;/span&gt;" style="ellipse;whiteSpace=wrap;html=1;" parent="1" vertex="1">
          <mxGeometry x="230" y="890" width="80" height="50" as="geometry" />
        </mxCell>
        <mxCell id="z4kr6fctD4fUP22gW_Uv-20" value="&lt;span lang=&quot;EN&quot; style=&quot;font-size: 11pt ; line-height: 16.866666793823242px ; font-family: &amp;#34;arial&amp;#34; , sans-serif&quot;&gt;salary&lt;/span&gt;&lt;span style=&quot;font-size: medium&quot;&gt;&lt;/span&gt;" style="ellipse;whiteSpace=wrap;html=1;" parent="1" vertex="1">
          <mxGeometry x="320" y="890" width="80" height="50" as="geometry" />
        </mxCell>
        <mxCell id="z4kr6fctD4fUP22gW_Uv-21" value="&lt;span lang=&quot;EN&quot; style=&quot;font-size: 11pt ; line-height: 16.866666793823242px ; font-family: &amp;#34;arial&amp;#34; , sans-serif&quot;&gt;basketball manager&lt;/span&gt;&lt;span style=&quot;font-size: medium&quot;&gt;&lt;/span&gt;" style="rounded=0;whiteSpace=wrap;html=1;" parent="1" vertex="1">
          <mxGeometry x="460" y="780" width="120" height="60" as="geometry" />
        </mxCell>
        <mxCell id="z4kr6fctD4fUP22gW_Uv-22" value="" style="endArrow=none;html=1;entryX=0.5;entryY=1;entryDx=0;entryDy=0;" parent="1" edge="1">
          <mxGeometry width="50" height="50" relative="1" as="geometry">
            <mxPoint x="539.5" y="900" as="sourcePoint" />
            <mxPoint x="540" y="840" as="targetPoint" />
          </mxGeometry>
        </mxCell>
        <mxCell id="z4kr6fctD4fUP22gW_Uv-25" value="&lt;span lang=&quot;EN&quot; style=&quot;font-size: 11pt ; line-height: 16.866666793823242px ; font-family: &amp;#34;arial&amp;#34; , sans-serif&quot;&gt;salary&lt;/span&gt;&lt;span style=&quot;font-size: medium&quot;&gt;&lt;/span&gt;" style="ellipse;whiteSpace=wrap;html=1;" parent="1" vertex="1">
          <mxGeometry x="500" y="890" width="80" height="50" as="geometry" />
        </mxCell>
        <mxCell id="z4kr6fctD4fUP22gW_Uv-28" value="" style="endArrow=none;html=1;exitX=0.7;exitY=0.12;exitDx=0;exitDy=0;exitPerimeter=0;entryX=0.5;entryY=1;entryDx=0;entryDy=0;" parent="1" source="z4kr6fctD4fUP22gW_Uv-30" target="EqW7mRNqW-pM5LDjS-Ml-1" edge="1">
          <mxGeometry width="50" height="50" relative="1" as="geometry">
            <mxPoint x="98.89" y="688.89" as="sourcePoint" />
            <mxPoint x="110.00111111111109" y="650.0011111111111" as="targetPoint" />
          </mxGeometry>
        </mxCell>
        <mxCell id="z4kr6fctD4fUP22gW_Uv-30" value="have" style="rhombus;whiteSpace=wrap;html=1;" parent="1" vertex="1">
          <mxGeometry x="80" y="680" width="80" height="50" as="geometry" />
        </mxCell>
        <mxCell id="z4kr6fctD4fUP22gW_Uv-31" value="" style="endArrow=classic;html=1;entryX=0.5;entryY=0;entryDx=0;entryDy=0;" parent="1" target="z4kr6fctD4fUP22gW_Uv-32" edge="1">
          <mxGeometry width="50" height="50" relative="1" as="geometry">
            <mxPoint x="140" y="720" as="sourcePoint" />
            <mxPoint x="80" y="770" as="targetPoint" />
          </mxGeometry>
        </mxCell>
        <mxCell id="z4kr6fctD4fUP22gW_Uv-32" value="&lt;span lang=&quot;EN&quot; style=&quot;font-size: 11pt ; line-height: 16.866666793823242px ; font-family: &amp;#34;arial&amp;#34; , sans-serif&quot;&gt;Basketball Team&lt;/span&gt;&lt;span style=&quot;font-size: medium&quot;&gt;&lt;/span&gt;" style="rounded=0;whiteSpace=wrap;html=1;" parent="1" vertex="1">
          <mxGeometry x="90" y="770" width="120" height="60" as="geometry" />
        </mxCell>
        <mxCell id="z4kr6fctD4fUP22gW_Uv-33" value="" style="endArrow=none;html=1;entryX=0.5;entryY=1;entryDx=0;entryDy=0;" parent="1" edge="1">
          <mxGeometry width="50" height="50" relative="1" as="geometry">
            <mxPoint x="159.5" y="890" as="sourcePoint" />
            <mxPoint x="160" y="830" as="targetPoint" />
          </mxGeometry>
        </mxCell>
        <mxCell id="z4kr6fctD4fUP22gW_Uv-34" value="" style="endArrow=none;html=1;" parent="1" edge="1">
          <mxGeometry width="50" height="50" relative="1" as="geometry">
            <mxPoint x="70" y="880" as="sourcePoint" />
            <mxPoint x="120" y="830" as="targetPoint" />
          </mxGeometry>
        </mxCell>
        <mxCell id="z4kr6fctD4fUP22gW_Uv-35" value="&lt;span lang=&quot;EN&quot; style=&quot;font-size: 11pt ; line-height: 16.866666793823242px ; font-family: &amp;#34;arial&amp;#34; , sans-serif&quot;&gt;&lt;u&gt;team name&lt;/u&gt;&amp;nbsp;&lt;/span&gt;&lt;span style=&quot;font-size: medium&quot;&gt;&lt;/span&gt;" style="ellipse;whiteSpace=wrap;html=1;" parent="1" vertex="1">
          <mxGeometry x="30" y="880" width="80" height="50" as="geometry" />
        </mxCell>
        <mxCell id="z4kr6fctD4fUP22gW_Uv-36" value="&lt;span lang=&quot;EN&quot; style=&quot;font-size: 11pt ; line-height: 16.866666793823242px ; font-family: &amp;#34;arial&amp;#34; , sans-serif&quot;&gt;&lt;u&gt;school name&lt;/u&gt;&lt;/span&gt;&lt;span style=&quot;font-size: medium&quot;&gt;&lt;/span&gt;" style="ellipse;whiteSpace=wrap;html=1;" parent="1" vertex="1">
          <mxGeometry x="120" y="880" width="80" height="50" as="geometry" />
        </mxCell>
        <mxCell id="z4kr6fctD4fUP22gW_Uv-37" value="" style="endArrow=none;html=1;" parent="1" edge="1">
          <mxGeometry width="50" height="50" relative="1" as="geometry">
            <mxPoint x="100" y="950" as="sourcePoint" />
            <mxPoint x="145" y="830" as="targetPoint" />
          </mxGeometry>
        </mxCell>
        <mxCell id="z4kr6fctD4fUP22gW_Uv-38" value="&lt;span lang=&quot;EN&quot; style=&quot;font-size: 11pt ; line-height: 16.866666793823242px ; font-family: &amp;#34;arial&amp;#34; , sans-serif&quot;&gt;mascot&lt;/span&gt;&lt;span style=&quot;font-size: medium&quot;&gt;&lt;/span&gt;" style="ellipse;whiteSpace=wrap;html=1;" parent="1" vertex="1">
          <mxGeometry x="60" y="950" width="80" height="50" as="geometry" />
        </mxCell>
        <mxCell id="z4kr6fctD4fUP22gW_Uv-39" value="" style="endArrow=none;html=1;exitX=1;exitY=0.5;exitDx=0;exitDy=0;" parent="1" source="z4kr6fctD4fUP22gW_Uv-41" edge="1">
          <mxGeometry width="50" height="50" relative="1" as="geometry">
            <mxPoint x="380" y="996.77" as="sourcePoint" />
            <mxPoint x="493.2258064516129" y="839.9958064516129" as="targetPoint" />
          </mxGeometry>
        </mxCell>
        <mxCell id="z4kr6fctD4fUP22gW_Uv-41" value="work" style="rhombus;whiteSpace=wrap;html=1;" parent="1" vertex="1">
          <mxGeometry x="260" y="980" width="80" height="50" as="geometry" />
        </mxCell>
        <mxCell id="z4kr6fctD4fUP22gW_Uv-42" value="" style="endArrow=classic;html=1;entryX=0.817;entryY=1.083;entryDx=0;entryDy=0;entryPerimeter=0;" parent="1" target="z4kr6fctD4fUP22gW_Uv-32" edge="1">
          <mxGeometry width="50" height="50" relative="1" as="geometry">
            <mxPoint x="260" y="1000" as="sourcePoint" />
            <mxPoint x="310" y="950" as="targetPoint" />
          </mxGeometry>
        </mxCell>
        <mxCell id="z4kr6fctD4fUP22gW_Uv-43" value="" style="endArrow=none;html=1;entryX=0;entryY=0;entryDx=0;entryDy=0;" parent="1" target="z4kr6fctD4fUP22gW_Uv-15" edge="1">
          <mxGeometry width="50" height="50" relative="1" as="geometry">
            <mxPoint x="270" y="730" as="sourcePoint" />
            <mxPoint x="275" y="790" as="targetPoint" />
          </mxGeometry>
        </mxCell>
        <mxCell id="z4kr6fctD4fUP22gW_Uv-45" value="play" style="rhombus;whiteSpace=wrap;html=1;" parent="1" vertex="1">
          <mxGeometry x="210" y="690" width="80" height="50" as="geometry" />
        </mxCell>
        <mxCell id="z4kr6fctD4fUP22gW_Uv-49" value="" style="endArrow=classic;html=1;exitX=0.113;exitY=0.6;exitDx=0;exitDy=0;exitPerimeter=0;" parent="1" source="z4kr6fctD4fUP22gW_Uv-45" edge="1">
          <mxGeometry width="50" height="50" relative="1" as="geometry">
            <mxPoint x="190" y="710" as="sourcePoint" />
            <mxPoint x="187" y="766" as="targetPoint" />
          </mxGeometry>
        </mxCell>
      </root>
    </mxGraphModel>
  </diagram>
</mxfile>
